<svg width="31" height="30" viewBox="0 0 31 30" fill="none" xmlns="http://www.w3.org/2000/svg">
<path fill-rule="evenodd" clip-rule="evenodd" d="M0.5 6C0.5 2.68629 3.18629 0 6.5 0H24.5C27.8137 0 30.5 2.68629 30.5 6V24C30.5 27.3137 27.8137 30 24.5 30H6.5C3.18629 30 0.5 27.3137 0.5 24V6ZM6.5 3C4.84314 3 3.5 4.34314 3.5 6V24C3.5 25.6569 4.84314 27 6.5 27H15.5V16.5H14C13.1716 16.5 12.5 15.8284 12.5 15C12.5 14.1716 13.1716 13.5 14 13.5H15.5V11.25C15.5 8.3505 17.8505 6 20.75 6H21.65C22.4785 6 23.15 6.67158 23.15 7.5C23.15 8.32842 22.4785 9 21.65 9H20.75C19.5074 9 18.5 10.0074 18.5 11.25V13.5H21.65C22.4785 13.5 23.15 14.1716 23.15 15C23.15 15.8284 22.4785 16.5 21.65 16.5H18.5V27H24.5C26.1569 27 27.5 25.6569 27.5 24V6C27.5 4.34314 26.1569 3 24.5 3H6.5Z" fill="#9CA3AF"/>
</svg>
