<svg width="30" height="33" viewBox="0 0 30 33" fill="none" xmlns="http://www.w3.org/2000/svg">
<path d="M3.80789 3.02444C3.89402 1.50086 4.25796 0.838329 5.30164 0.306293C6.42462 -0.266345 8.19579 0.000143523 10.2799 1.05552C11.1776 1.5103 11.269 1.51956 12.8422 1.31786C14.9333 1.04966 17.6254 1.0506 19.5554 1.32031C21.0149 1.52428 21.1108 1.51409 22.0106 1.05835C24.9689 -0.439721 27.3045 -0.341702 28.1503 1.31596C28.5724 2.14338 28.6508 4.29039 28.3235 6.06119C28.142 7.0429 28.1612 7.16547 28.5984 7.8097C31.6744 12.3426 29.458 19.6903 24.1871 22.4323C23.7838 22.6422 23.4439 22.7721 23.1668 22.8778C22.3162 23.2026 22.058 23.3013 22.3706 24.7963C22.5212 25.5154 22.7026 27.3033 22.7738 28.7697C22.9027 31.4202 22.9007 31.4387 22.4359 31.9794C21.8031 32.715 20.8911 32.7274 20.2732 32.0089C19.8701 31.5403 19.8308 31.319 19.8308 29.5112C19.8308 26.8395 19.5379 25.0637 18.846 23.5421C18.0232 21.7313 18.6332 21.0561 20.5149 20.6514C23.1303 20.0887 25.173 18.4746 26.3116 16.071C27.3942 13.7861 27.5573 10.6286 25.6002 8.70832C25.0436 8.04691 25.0049 7.44783 25.4023 5.64134C25.5508 4.96616 25.6753 4.0951 25.679 3.70547C25.6846 3.09015 25.6286 2.99724 25.2507 2.99724C25.0115 2.99724 24.0978 3.34513 23.2204 3.77026L21.82 4.449C21.6926 4.51069 21.5502 4.53442 21.4097 4.5183C17.8488 4.10957 14.4653 4.10325 10.887 4.51989C10.746 4.53631 10.6029 4.51259 10.4752 4.45058L9.07552 3.7714C8.19805 3.3455 7.28433 2.99724 7.04524 2.99724C6.49242 2.99724 6.48411 3.40537 6.988 5.8302C7.2958 7.31112 7.50293 7.6411 6.61311 8.82522C5.27935 10.6002 4.94619 12.8042 5.66142 15.12C6.56287 18.0382 8.77032 20.0096 11.8737 20.6674C13.7446 21.0639 14.2336 21.5813 13.5192 23.7265C12.9568 25.4147 12.6013 25.8499 11.784 25.8499C10.6845 25.8499 9.99567 24.8973 10.3747 23.9006C10.5417 23.4613 10.492 23.4144 9.46194 23.0387C6.31753 21.8923 3.91252 19.3227 2.81295 15.9345C1.96307 13.3159 2.33702 9.90741 3.70044 7.84728C4.16466 7.14583 4.17185 7.08634 3.95521 5.74351C3.83264 4.98334 3.76635 3.75987 3.80789 3.02444Z" fill="#9CA3AF"/>
<path d="M2.70988 22.1807C2.25677 21.5011 1.33846 21.3174 0.658781 21.7706C-0.0208806 22.2236 -0.204551 23.142 0.248561 23.8216C0.583082 24.3235 0.983274 24.7357 1.32312 25.0754C1.38577 25.1381 1.44665 25.1986 1.5061 25.2576C1.79077 25.5404 2.04212 25.7901 2.29457 26.0865C2.85293 26.7419 3.40997 27.6246 3.72655 29.2075C3.86756 29.9126 4.37436 30.2924 4.65518 30.4583C4.95972 30.6382 5.29247 30.7443 5.56629 30.8133C6.12642 30.9546 6.8064 31.0279 7.45171 31.0707C8.16013 31.1177 8.92772 31.133 9.61411 31.1371C9.61461 31.9534 10.2766 32.6151 11.0932 32.6151C11.91 32.6151 12.5722 31.9529 12.5722 31.1361V29.657C12.5722 28.8401 11.91 28.1779 11.0932 28.1779C10.9537 28.1779 10.8029 28.1784 10.6431 28.179C9.77509 28.1816 8.64368 28.185 7.64723 28.1191C7.16673 28.0873 6.77173 28.0421 6.48207 27.987C6.03601 26.2359 5.31539 25.0708 4.54644 24.1682C4.20652 23.7693 3.85453 23.4202 3.56823 23.1362C3.51463 23.0831 3.46333 23.0322 3.41483 22.9837C3.08448 22.6535 2.86839 22.4186 2.70988 22.1807Z" fill="#9CA3AF"/>
</svg>
