<svg width="34" height="34" viewBox="0 0 34 34" fill="none" xmlns="http://www.w3.org/2000/svg">
<path fill-rule="evenodd" clip-rule="evenodd" d="M23.4286 2H10.5714C5.83756 2 2 5.83756 2 10.5714V23.4286C2 28.1624 5.83756 32 10.5714 32H23.4286C28.1624 32 32 28.1624 32 23.4286V10.5714C32 5.83756 28.1624 2 23.4286 2Z" stroke="#9CA3AF" stroke-width="3.6" stroke-linecap="round" stroke-linejoin="round"/>
<path fill-rule="evenodd" clip-rule="evenodd" d="M17 23.4286C13.4495 23.4286 10.5714 20.5505 10.5714 17C10.5714 13.4495 13.4495 10.5714 17 10.5714C20.5505 10.5714 23.4286 13.4495 23.4286 17C23.4286 18.7049 22.7512 20.3401 21.5456 21.5456C20.3401 22.7512 18.7049 23.4286 17 23.4286Z" stroke="#9CA3AF" stroke-width="3.6" stroke-linecap="round" stroke-linejoin="round"/>
<path d="M25.5714 6.28571C24.388 6.28571 23.4286 7.2451 23.4286 8.42857C23.4286 9.61204 24.388 10.5714 25.5714 10.5714C26.7549 10.5714 27.7143 9.61204 27.7143 8.42857C27.7143 7.2451 26.7549 6.28571 25.5714 6.28571Z" fill="#9CA3AF"/>
<path d="M25.5714 7.35714C24.9797 7.35714 24.5 7.83684 24.5 8.42857C24.5 9.02031 24.9797 9.5 25.5714 9.5C26.1632 9.5 26.6429 9.02031 26.6429 8.42857C26.6429 7.83684 26.1632 7.35714 25.5714 7.35714Z" stroke="#9CA3AF" stroke-width="2.4" stroke-linecap="round"/>
</svg>
