<svg width="30" height="36" viewBox="0 0 30 36" fill="none" xmlns="http://www.w3.org/2000/svg">
<path d="M9.23773 7.92118C9.11846 7.64118 8.92058 7.40176 8.66805 7.23191C8.41551 7.06207 8.11915 6.96907 7.81485 6.9642H2.77812C2.64582 6.95669 2.51368 6.98141 2.39305 7.03624C2.27242 7.09108 2.1669 7.17438 2.08557 7.27899C2.01826 7.39808 1.98289 7.53255 1.98289 7.66934C1.98289 7.80613 2.01826 7.9406 2.08557 8.05969L5.52314 14.0156L0.108652 23.5728C0.0375686 23.6906 0 23.8256 0 23.9632C0 24.1007 0.0375686 24.2357 0.108652 24.3535C0.176212 24.4655 0.272621 24.5574 0.387804 24.6194C0.502986 24.6814 0.632714 24.7113 0.763427 24.7061H5.80016C6.10201 24.6966 6.39439 24.5984 6.64074 24.4238C6.88709 24.2491 7.07649 24.0056 7.18526 23.7239L12.6753 14.0156L9.23773 7.92118Z" fill="#9CA3AF"/>
<path d="M29.9009 1.109C29.9659 0.989171 30 0.854993 30 0.718656C30 0.58232 29.9659 0.448143 29.9009 0.32831C29.8265 0.221719 29.7262 0.135769 29.6095 0.0785083C29.4928 0.0212481 29.3634 -0.00544743 29.2336 0.000922638H24.0961C23.7988 0.00931982 23.5107 0.106006 23.2685 0.278669C23.0263 0.451333 22.841 0.692162 22.7362 0.970493C22.7362 0.970493 11.7813 20.3997 11.4035 21.0293L18.6312 34.2885C18.749 34.568 18.9445 34.8079 19.1944 34.9797C19.4444 35.1515 19.7384 35.2481 20.0415 35.258H25.0783C25.2105 35.2692 25.3433 35.2447 25.4629 35.1871C25.5825 35.1295 25.6845 35.041 25.7582 34.9306C25.8267 34.812 25.8628 34.6773 25.8628 34.5403C25.8628 34.4033 25.8267 34.2686 25.7582 34.1499L18.5935 21.0545L29.9009 1.109Z" fill="#9CA3AF"/>
</svg>
