<svg width="34" height="25" viewBox="0 0 34 25" fill="none" xmlns="http://www.w3.org/2000/svg">
<path fill-rule="evenodd" clip-rule="evenodd" d="M25.502 23.0042C28.9586 23.1301 31.865 20.435 32 16.9787V8.02973C31.865 4.57354 28.9586 1.8784 25.502 2.00423H8.498C5.04144 1.8784 2.13497 4.57354 2 8.02973V16.9787C2.13497 20.435 5.04144 23.1301 8.498 23.0042H25.502Z" stroke="#9CA3AF" stroke-width="3" stroke-linecap="round" stroke-linejoin="round"/>
<path fill-rule="evenodd" clip-rule="evenodd" d="M16.262 8.26676L21.0035 11.4887C21.3107 11.6681 21.4995 11.9971 21.4995 12.3527C21.4995 12.7085 21.3107 13.0375 21.0035 13.2167L16.262 16.7417C15.362 17.3522 14 16.8317 14 15.8777V9.12776C14 8.17826 15.3635 7.65626 16.262 8.26676Z" stroke="#9CA3AF" stroke-width="3" stroke-linecap="round" stroke-linejoin="round"/>
</svg>
